<?xml version="1.0" encoding="UTF-8"?>
<svg id="Layer_1" xmlns="http://www.w3.org/2000/svg" version="1.1" xmlns:xlink="http://www.w3.org/1999/xlink" viewBox="0 0 34.13 34.13">
  <!-- Generator: Adobe Illustrator 29.5.0, SVG Export Plug-In . SVG Version: 2.1.0 Build 137)  -->
  <defs>
    <style>
      .st0 {
        fill: url(#linear-gradient1);
      }

      .st1 {
        fill: #cc178d;
      }

      .st2 {
        fill: none;
        stroke: url(#linear-gradient);
        stroke-miterlimit: 10;
        stroke-width: 2px;
      }
    </style>
    <linearGradient id="linear-gradient" x1="17.06" y1="32.84" x2="17.06" y2="1.29" gradientUnits="userSpaceOnUse">
      <stop offset="0" stop-color="#ff00f9"/>
      <stop offset="1" stop-color="#c12d94"/>
    </linearGradient>
    <linearGradient id="linear-gradient1" x1="11.18" y1="27.24" x2="21.43" y2="9.49" gradientUnits="userSpaceOnUse">
      <stop offset="0" stop-color="#c700d4"/>
      <stop offset="1" stop-color="#ff00e3"/>
    </linearGradient>
  </defs>
  <circle class="st2" cx="17.06" cy="17.06" r="14.77"/>
  <path class="st1" d="M26.49,14.4v7.7c0,1.55-.94,2.95-2.37,3.54-.47.19-.96.29-1.47.29h-12.33c-2.11,0-3.82-1.7-3.83-3.81,0,0,0-.01,0-.02v-11.16c-.01-2.11,1.69-3.83,3.8-3.84.01,0,.02,0,.03,0h3.08c1.28,0,2.48.64,3.2,1.71l.87,1.33c.09.13.22.24.36.32.14.08.31.12.47.12h4.35c1.02,0,1.99.39,2.71,1.11.72.72,1.13,1.69,1.13,2.71"/>
  <path class="st0" d="M27.06,14.95v7.7c0,1.55-.94,2.95-2.37,3.54-.47.19-.96.29-1.47.29h-12.33c-2.11,0-3.82-1.7-3.83-3.81,0,0,0-.01,0-.02v-11.16c-.01-2.11,1.69-3.83,3.8-3.84.01,0,.02,0,.03,0h3.08c1.28,0,2.48.64,3.2,1.71l.87,1.33c.09.13.22.24.36.32.14.08.31.12.47.12h4.35c1.02,0,1.99.39,2.71,1.11.72.72,1.13,1.69,1.13,2.71"/>
</svg>